<svg width="1190" height="200" viewBox="0 0 1190 200" fill="none" xmlns="http://www.w3.org/2000/svg">
<path d="M252.182 72.4545H279.455V81.5455H252.182V72.4545ZM243.091 81.5455H252.182V117.909H243.091V81.5455ZM252.182 117.909H279.455V127H252.182V117.909ZM279.455 81.5455H288.545V90.6364H279.455V81.5455ZM279.455 108.818H288.545V117.909H279.455V108.818ZM306.763 99.7273H315.854V117.909H306.763V99.7273ZM315.854 117.909H334.036V127H315.854V117.909ZM334.036 108.818H343.126V99.7273H315.854V90.6364H343.126V81.5455H352.217V127H343.126V117.909H334.036V108.818ZM315.854 72.4545H343.126V81.5455H315.854V72.4545ZM388.616 72.4545V81.5455H397.707V90.6364H388.616V117.909H406.798V127H370.435V117.909H379.526V81.5455H370.435V72.4545H388.616ZM415.889 72.4545V81.5455H397.707V72.4545H415.889ZM470.47 54.2727H479.561V127H470.47V117.909H461.379V108.818H470.47V90.6364H461.379V81.5455H470.47V54.2727ZM461.379 117.909V127H443.197V117.909H461.379ZM443.197 117.909H434.107V81.5455H443.197V117.909ZM461.379 81.5455H443.197V72.4545H461.379V81.5455ZM506.869 72.4545H525.051V81.5455H506.869V72.4545ZM497.778 81.5455H506.869V117.909H497.778V81.5455ZM506.869 117.909H525.051V127H506.869V117.909ZM506.869 136.091H534.142V145.182H506.869V136.091ZM525.051 108.818H534.142V90.6364H525.051V81.5455H534.142V72.4545H543.233V136.091H534.142V117.909H525.051V108.818ZM570.541 72.4545H597.814V81.5455H570.541V72.4545ZM597.814 81.5455H606.905V117.909H597.814V81.5455ZM561.45 81.5455H570.541V117.909H561.45V81.5455ZM570.541 117.909H597.814V127H570.541V117.909ZM625.122 72.4545H634.213V117.909H625.122V72.4545ZM634.213 117.909H652.395V127H634.213V117.909ZM661.486 72.4545H670.577V127H661.486V117.909H652.395V108.818H661.486V72.4545ZM706.976 72.4545V81.5455H716.067V90.6364H706.976V117.909H725.158V127H688.794V117.909H697.885V81.5455H688.794V72.4545H706.976ZM734.249 72.4545V81.5455H716.067V72.4545H734.249ZM752.466 72.4545H770.648V81.5455H761.557V127H752.466V72.4545ZM770.648 81.5455H779.739V127H770.648V81.5455ZM788.83 81.5455H779.739V72.4545H788.83V81.5455ZM788.83 81.5455H797.92V127H788.83V81.5455ZM825.229 72.4545H852.501V81.5455H825.229V72.4545ZM816.138 81.5455H825.229V90.6364H852.501V81.5455H861.592V99.7273H825.229V117.909H816.138V81.5455ZM825.229 117.909H852.501V127H825.229V117.909ZM852.501 108.818H861.592V117.909H852.501V108.818ZM888.901 54.2727H897.991V72.4545H925.264V81.5455H897.991V117.909H888.901V81.5455H879.81V72.4545H888.901V54.2727ZM897.991 117.909H916.173V127H897.991V117.909ZM916.173 108.818H925.264V117.909H916.173V108.818ZM961.663 108.818H970.754V127H961.663V108.818ZM1016.24 72.4545H1043.52V81.5455H1016.24V72.4545ZM1007.15 81.5455H1016.24V117.909H1007.15V81.5455ZM1016.24 117.909H1043.52V127H1016.24V117.909ZM1043.52 81.5455H1052.61V90.6364H1043.52V81.5455ZM1043.52 108.818H1052.61V117.909H1043.52V108.818ZM1079.92 72.4545H1107.19V81.5455H1079.92V72.4545ZM1107.19 81.5455H1116.28V117.909H1107.19V81.5455ZM1070.83 81.5455H1079.92V117.909H1070.83V81.5455ZM1079.92 117.909H1107.19V127H1079.92V117.909ZM1134.5 72.4545H1152.68V81.5455H1143.59V127H1134.5V72.4545ZM1152.68 81.5455H1161.77V127H1152.68V81.5455ZM1170.86 81.5455H1161.77V72.4545H1170.86V81.5455ZM1170.86 81.5455H1179.95V127H1170.86V81.5455Z" fill="#334155"/>
<rect width="200" height="200" rx="36" fill="white"/>
<g clip-path="url(#clip0_783_138)">
<path d="M134.131 139.027C133.562 139.027 132.988 139.013 132.414 138.986C129.202 138.83 125.829 138.364 122.108 137.565C115.429 136.13 107.797 134.153 101.771 128.804C101.245 128.337 100.712 128.112 100.138 128.112H99.8673C99.3002 128.112 98.7514 128.344 98.2349 128.804C92.2082 134.151 84.5766 136.13 77.8979 137.565C74.1739 138.364 70.8036 138.83 67.5916 138.986C67.0177 139.013 66.446 139.027 65.8743 139.027C60.0267 139.027 54.8242 137.537 50.4138 134.603C45.5052 131.336 43.5858 124.471 46.1365 119.301C47.6059 116.323 49.9431 114.75 52.8956 114.75H52.9944C51.0865 115.494 49.7526 117.269 49.4771 119.62C49.3623 120.589 49.3554 121.624 49.4564 122.699C49.7066 125.38 51.4722 126.981 54.179 126.981C57.1844 126.981 59.7282 125.608 61.9736 124.395C64.5243 123.02 67.0544 121.606 69.5845 120.189C72.4405 118.591 75.2989 116.993 78.1872 115.453C81.3624 113.759 84.5307 112.9 87.6072 112.9C89.2579 112.9 90.9156 113.148 92.5365 113.637C94.0839 114.105 95.5992 114.968 97.064 115.804C97.4772 116.038 97.8905 116.275 98.3038 116.502C98.8479 116.801 99.2979 116.934 99.7616 116.934C99.842 116.934 99.9224 116.929 100.003 116.922C100.083 116.929 100.163 116.934 100.244 116.934C100.705 116.934 101.155 116.801 101.699 116.502C102.115 116.275 102.528 116.038 102.941 115.802C104.406 114.966 105.922 114.103 107.467 113.637C109.088 113.148 110.745 112.9 112.396 112.9C115.472 112.9 118.641 113.759 121.816 115.453C124.702 116.993 127.556 118.589 130.412 120.187C132.944 121.604 135.477 123.018 138.03 124.395C140.275 125.605 142.821 126.978 145.822 126.981C148.531 126.981 150.299 125.38 150.549 122.699C150.65 121.624 150.643 120.589 150.528 119.62C150.251 117.269 148.917 115.494 147.009 114.75H147.11C150.065 114.75 152.402 116.323 153.869 119.301C156.42 124.471 154.5 131.336 149.592 134.603C145.181 137.537 139.979 139.027 134.131 139.027Z" fill="#FF9B5D"/>
<path d="M159.668 101.256L127.955 92.46V114.877C129.302 115.621 130.639 116.369 131.952 117.104L132.092 117.182C134.427 118.488 137.072 119.967 139.664 121.365C141.643 122.433 143.691 123.537 145.821 123.537C146.744 123.537 147.036 123.278 147.121 122.378C147.199 121.542 147.194 120.752 147.109 120.024C147.038 119.423 146.77 118.355 145.757 117.96C144.214 117.359 143.319 115.743 143.627 114.115C143.934 112.487 145.355 111.309 147.011 111.309H147.112C151.405 111.309 154.902 113.607 156.961 117.779C158.57 121.042 158.885 124.883 157.847 128.595C156.816 132.282 154.564 135.434 151.504 137.473C146.517 140.791 140.674 142.474 134.135 142.474C133.518 142.474 132.884 142.458 132.25 142.428C130.852 142.359 129.424 142.233 127.959 142.053V144.919C127.959 151.249 122.81 156.398 116.48 156.398H104.546C105.574 158.056 107.2 159.346 109.213 159.906L140.966 168.711C145.224 169.891 149.676 167.375 150.856 163.116L165.268 111.149C166.448 106.89 163.931 102.438 159.673 101.258L159.668 101.256Z" fill="#45659D"/>
<path d="M121.384 140.931C114.457 139.443 106.553 137.391 100 131.828C93.4477 137.391 85.543 139.443 78.6163 140.931C77.5487 141.16 76.5086 141.36 75.4893 141.539V144.917C75.4893 149.336 79.1053 152.952 83.5249 152.952H116.475C120.895 152.952 124.511 149.336 124.511 144.917V141.539C123.492 141.362 122.452 141.16 121.384 140.931Z" fill="#45659D"/>
<path d="M76.5637 112.416C80.2417 110.453 83.9565 109.459 87.6047 109.459C89.5929 109.459 91.588 109.757 93.5281 110.342C95.452 110.923 97.213 111.929 98.7627 112.813L98.8752 112.877C99.2471 113.088 99.5984 113.288 99.9474 113.479C99.9657 113.479 99.9818 113.479 100 113.479C100.019 113.479 100.035 113.479 100.053 113.479C100.441 113.265 100.845 113.036 101.242 112.808C102.794 111.924 104.555 110.921 106.47 110.342C108.412 109.755 110.407 109.459 112.396 109.459C116.044 109.459 119.759 110.453 123.437 112.416C123.795 112.606 124.153 112.801 124.511 112.994V90.9858C124.511 86.5662 120.895 82.9502 116.475 82.9502H83.5249C79.1053 82.9502 75.4893 86.5662 75.4893 90.9858V112.994C75.8474 112.801 76.2033 112.606 76.5637 112.416Z" fill="#45659D"/>
<path d="M72.0454 144.916V142.051C70.5806 142.23 69.1526 142.357 67.7544 142.425C67.1207 142.455 66.487 142.471 65.8694 142.471C59.3308 142.471 53.4854 140.788 48.4987 137.471C45.4383 135.434 43.1838 132.282 42.1552 128.595C41.1174 124.883 41.432 121.042 43.0414 117.779C45.0985 113.605 48.5975 111.307 52.8908 111.307H52.9918C54.8928 111.307 56.4356 112.85 56.4356 114.751C56.4356 115.642 56.0981 116.454 55.5425 117.065C55.3726 117.253 55.1798 117.423 54.9663 117.572C54.7298 117.738 54.4726 117.873 54.1994 117.976C53.226 118.385 52.9619 119.43 52.8931 120.024C52.8081 120.75 52.8035 121.542 52.8816 122.38C52.9642 123.278 53.2558 123.537 54.1742 123.537C56.3117 123.537 58.3573 122.433 60.3364 121.365C62.9055 119.981 65.4447 118.56 67.9013 117.184C69.2628 116.422 70.6472 115.648 72.0454 114.875V92.46L40.3323 101.256C36.0734 102.436 33.5548 106.887 34.7372 111.146L49.1485 163.114C50.3286 167.373 54.7803 169.891 59.0392 168.709L90.7913 159.904C92.8071 159.346 94.4326 158.054 95.4589 156.396H83.5249C77.1951 156.396 72.0454 151.246 72.0454 144.916Z" fill="#45659D"/>
<path d="M120.95 79.3962C122.348 79.7957 123.824 79.0863 124.385 77.7455C125.156 75.895 126.276 73.4108 127.273 71.9644C127.599 71.4914 128.256 71.0506 128.784 71.0162C138.137 70.4262 144.999 62.5995 145.016 52.431C145.036 40.1755 135.129 31.2192 124.247 33.7172C123.138 33.972 122.566 33.724 121.868 32.7712C115.213 23.6956 106.543 19.8018 95.996 21.3193C88.6193 22.38 82.6867 26.3841 78.1546 32.8149C77.5462 33.6781 76.986 33.8297 75.9942 33.7172C73.9325 33.4876 71.8042 33.3085 69.7631 33.607C61.3762 34.8284 54.4909 42.8227 55.0143 53.5996C55.462 62.8199 62.29 70.2218 71.0833 70.8279C71.6504 70.867 72.3575 71.3399 72.7088 71.8473C73.7258 73.3213 74.8761 75.8605 75.6636 77.7409C76.2261 79.084 77.7023 79.7957 79.1028 79.3939C94.01 75.1121 105.985 75.1121 120.95 79.3962ZM59.1446 50.6241C59.9092 44.292 63.6744 39.675 69.3866 38.1873C72.8787 37.2781 76.3432 37.7786 79.5069 39.427C84.0505 41.7941 88.4333 44.5285 92.8896 47.0976C97.4929 49.7494 102.25 51.7445 107.604 51.1223C110.598 50.7733 113.355 49.7103 115.805 47.7657C116.062 47.5614 116.305 47.3364 116.533 47.0953C116.654 46.9667 116.728 46.7854 117.019 46.3032C116.124 46.48 115.479 46.5259 114.88 46.7349C108.674 48.9045 102.757 48.0986 97.1164 44.6571C94.1799 42.8663 91.3055 40.9584 88.369 39.1699C86.1948 37.8452 83.9632 36.6283 81.6581 35.3059C90.6236 22.0724 109.815 22.1803 118.631 35.6503C116.126 36.7707 113.711 38.0518 111.179 38.9242C108.701 39.7783 106.102 40.2145 103.435 40.8643C104.479 42.0443 105.85 42.2808 107.218 42.4347C110.318 42.7813 113.256 41.9158 116.186 40.9538C119.398 39.8977 122.58 38.5959 125.866 37.96C131.527 36.8648 137.097 40.2191 139.648 45.7912C142.15 51.2578 141.133 58.2579 137.125 62.5995C132.941 67.1293 127.918 68.3047 122.293 66.7734C120.943 66.406 119.618 65.9216 118.28 65.4923C118.177 65.6392 118.076 65.7862 117.972 65.9331C118.753 66.7183 119.474 67.593 120.328 68.2657C121.235 68.9797 122.266 69.5055 123.317 70.1575C122.66 71.434 122.073 72.7152 121.343 73.8929C121.173 74.1662 120.484 74.2511 120.101 74.1432C112.295 71.9529 104.367 71.0575 96.3197 71.4432C90.8532 71.705 85.4624 72.5728 80.1842 74.1409C79.174 74.4417 78.724 74.2052 78.313 73.2065C77.8699 72.1297 77.2431 71.1425 76.6393 70.006C78.6115 68.8902 80.6755 67.9489 81.8257 65.5359C80.8707 65.8619 79.9087 66.1673 78.9582 66.5185C74.5615 68.144 70.282 67.9581 66.1724 65.4854C61.3694 62.5926 58.4467 56.3753 59.1423 50.6172L59.1446 50.6241Z" fill="#45659D"/>
</g>
<defs>
<clipPath id="clip0_783_138">
<rect width="131.109" height="148" fill="white" transform="translate(34.4453 21)"/>
</clipPath>
</defs>
</svg>
