<svg width="1178" height="192" viewBox="0 0 1178 192" fill="none" xmlns="http://www.w3.org/2000/svg">
<path d="M240.182 77.4545H267.455V86.5455H240.182V77.4545ZM231.091 86.5455H240.182V122.909H231.091V86.5455ZM240.182 122.909H267.455V132H240.182V122.909ZM267.455 86.5455H276.545V95.6364H267.455V86.5455ZM267.455 113.818H276.545V122.909H267.455V113.818ZM294.763 104.727H303.854V122.909H294.763V104.727ZM303.854 122.909H322.036V132H303.854V122.909ZM322.036 113.818H331.126V104.727H303.854V95.6364H331.126V86.5455H340.217V132H331.126V122.909H322.036V113.818ZM303.854 77.4545H331.126V86.5455H303.854V77.4545ZM376.616 77.4545V86.5455H385.707V95.6364H376.616V122.909H394.798V132H358.435V122.909H367.526V86.5455H358.435V77.4545H376.616ZM403.889 77.4545V86.5455H385.707V77.4545H403.889ZM458.47 59.2727H467.561V132H458.47V122.909H449.379V113.818H458.47V95.6364H449.379V86.5455H458.47V59.2727ZM449.379 122.909V132H431.197V122.909H449.379ZM431.197 122.909H422.107V86.5455H431.197V122.909ZM449.379 86.5455H431.197V77.4545H449.379V86.5455ZM494.869 77.4545H513.051V86.5455H494.869V77.4545ZM485.778 86.5455H494.869V122.909H485.778V86.5455ZM494.869 122.909H513.051V132H494.869V122.909ZM494.869 141.091H522.142V150.182H494.869V141.091ZM513.051 113.818H522.142V95.6364H513.051V86.5455H522.142V77.4545H531.233V141.091H522.142V122.909H513.051V113.818ZM558.541 77.4545H585.814V86.5455H558.541V77.4545ZM585.814 86.5455H594.905V122.909H585.814V86.5455ZM549.45 86.5455H558.541V122.909H549.45V86.5455ZM558.541 122.909H585.814V132H558.541V122.909ZM613.122 77.4545H622.213V122.909H613.122V77.4545ZM622.213 122.909H640.395V132H622.213V122.909ZM649.486 77.4545H658.577V132H649.486V122.909H640.395V113.818H649.486V77.4545ZM694.976 77.4545V86.5455H704.067V95.6364H694.976V122.909H713.158V132H676.794V122.909H685.885V86.5455H676.794V77.4545H694.976ZM722.249 77.4545V86.5455H704.067V77.4545H722.249ZM740.466 77.4545H758.648V86.5455H749.557V132H740.466V77.4545ZM758.648 86.5455H767.739V132H758.648V86.5455ZM776.83 86.5455H767.739V77.4545H776.83V86.5455ZM776.83 86.5455H785.92V132H776.83V86.5455ZM813.229 77.4545H840.501V86.5455H813.229V77.4545ZM804.138 86.5455H813.229V95.6364H840.501V86.5455H849.592V104.727H813.229V122.909H804.138V86.5455ZM813.229 122.909H840.501V132H813.229V122.909ZM840.501 113.818H849.592V122.909H840.501V113.818ZM876.901 59.2727H885.991V77.4545H913.264V86.5455H885.991V122.909H876.901V86.5455H867.81V77.4545H876.901V59.2727ZM885.991 122.909H904.173V132H885.991V122.909ZM904.173 113.818H913.264V122.909H904.173V113.818ZM949.663 113.818H958.754V132H949.663V113.818ZM1004.24 77.4545H1031.52V86.5455H1004.24V77.4545ZM995.153 86.5455H1004.24V122.909H995.153V86.5455ZM1004.24 122.909H1031.52V132H1004.24V122.909ZM1031.52 86.5455H1040.61V95.6364H1031.52V86.5455ZM1031.52 113.818H1040.61V122.909H1031.52V113.818ZM1067.92 77.4545H1095.19V86.5455H1067.92V77.4545ZM1095.19 86.5455H1104.28V122.909H1095.19V86.5455ZM1058.83 86.5455H1067.92V122.909H1058.83V86.5455ZM1067.92 122.909H1095.19V132H1067.92V122.909ZM1122.5 77.4545H1140.68V86.5455H1131.59V132H1122.5V77.4545ZM1140.68 86.5455H1149.77V132H1140.68V86.5455ZM1158.86 86.5455H1149.77V77.4545H1158.86V86.5455ZM1158.86 86.5455H1167.95V132H1158.86V86.5455Z" fill="white"/>
<g clip-path="url(#clip0_793_102)">
<path d="M130.015 153.116C129.272 153.116 128.524 153.099 127.775 153.063C123.586 152.86 119.187 152.256 114.333 151.219C105.622 149.358 95.669 146.793 87.8086 139.853C87.1229 139.249 86.4282 138.957 85.6796 138.957H85.3262C84.5866 138.957 83.8709 139.258 83.1972 139.853C75.3368 146.79 65.3833 149.358 56.6725 151.219C51.8155 152.256 47.4197 152.86 43.2305 153.063C42.4819 153.099 41.7363 153.116 40.9907 153.116C33.3638 153.116 26.5785 151.183 20.8262 147.377C14.4241 143.139 11.9207 134.233 15.2475 127.526C17.164 123.663 20.2123 121.622 24.0631 121.622H24.1919C21.7035 122.587 19.9638 124.89 19.6044 127.94C19.4547 129.197 19.4457 130.54 19.5775 131.934C19.9039 135.413 22.2066 137.489 25.737 137.489C29.6567 137.489 32.9746 135.707 35.9031 134.135C39.2299 132.351 42.5298 130.516 45.8297 128.678C49.5547 126.605 53.2828 124.532 57.0498 122.534C61.1911 120.336 65.3234 119.222 69.3359 119.222C71.4889 119.222 73.6509 119.543 75.765 120.178C77.7832 120.785 79.7596 121.905 81.67 122.989C82.209 123.293 82.748 123.6 83.287 123.895C83.9967 124.282 84.5836 124.455 85.1885 124.455C85.2933 124.455 85.3981 124.449 85.5029 124.44C85.6077 124.449 85.7125 124.455 85.8173 124.455C86.4192 124.455 87.0061 124.282 87.7158 123.895C88.2578 123.6 88.7968 123.293 89.3358 122.986C91.2462 121.902 93.2225 120.782 95.2378 120.178C97.3518 119.543 99.5138 119.222 101.667 119.222C105.679 119.222 109.812 120.336 113.953 122.534C117.717 124.532 121.439 126.602 125.164 128.675C128.467 130.513 131.77 132.348 135.1 134.135C138.028 135.704 141.349 137.486 145.263 137.489C148.796 137.489 151.102 135.413 151.428 131.934C151.56 130.54 151.551 129.197 151.401 127.94C151.039 124.89 149.299 122.587 146.811 121.622H146.943C150.796 121.622 153.845 123.663 155.758 127.526C159.085 134.233 156.582 143.139 150.18 147.377C144.427 151.183 137.642 153.116 130.015 153.116Z" fill="#74BEFE"/>
<path d="M163.323 104.115L121.961 92.7046V121.786C123.719 122.751 125.461 123.722 127.174 124.675L127.357 124.777C130.402 126.471 133.852 128.389 137.233 130.203C139.814 131.588 142.485 133.021 145.264 133.021C146.467 133.021 146.848 132.684 146.958 131.517C147.06 130.433 147.054 129.408 146.943 128.464C146.851 127.684 146.5 126.299 145.18 125.786C143.167 125.006 142 122.909 142.401 120.797C142.802 118.686 144.656 117.158 146.815 117.158H146.946C152.546 117.158 157.107 120.139 159.793 125.551C161.892 129.783 162.302 134.766 160.948 139.582C159.604 144.366 156.666 148.455 152.675 151.1C146.171 155.404 138.55 157.587 130.022 157.587C129.216 157.587 128.39 157.566 127.563 157.528C125.74 157.438 123.877 157.274 121.967 157.042V160.759C121.967 168.971 115.25 175.652 106.995 175.652H91.4297C92.7712 177.802 94.8913 179.476 97.5174 180.203L138.93 191.625C144.485 193.156 150.291 189.892 151.83 184.366L170.626 116.949C172.166 111.424 168.884 105.649 163.329 104.118L163.323 104.115Z" fill="white"/>
<path d="M113.391 155.585C104.357 153.655 94.0469 150.993 85.5008 143.776C76.9547 150.993 66.6448 153.655 57.6106 155.585C56.2182 155.883 54.8618 156.142 53.5322 156.375V160.756C53.5322 166.49 58.2485 171.181 64.0127 171.181H106.989C112.753 171.181 117.469 166.49 117.469 160.756V156.375C116.14 156.145 114.783 155.883 113.391 155.585Z" fill="white"/>
<path d="M54.9336 118.593C59.7307 116.047 64.5757 114.757 69.3338 114.757C71.927 114.757 74.5292 115.144 77.0595 115.904C79.5688 116.657 81.8655 117.962 83.8868 119.108L84.0335 119.192C84.5186 119.466 84.9768 119.725 85.4319 119.972C85.4559 119.972 85.4768 119.972 85.5008 119.972C85.5247 119.972 85.5457 119.972 85.5697 119.972C86.0757 119.695 86.6027 119.397 87.1208 119.102C89.145 117.956 91.4417 116.654 93.9391 115.904C96.4724 115.141 99.0745 114.757 101.668 114.757C106.426 114.757 111.271 116.047 116.068 118.593C116.535 118.84 117.002 119.094 117.469 119.344V90.7923C117.469 85.0587 112.753 80.3677 106.989 80.3677H64.0127C58.2485 80.3677 53.5322 85.0587 53.5322 90.7923V119.344C53.9994 119.094 54.4635 118.84 54.9336 118.593Z" fill="white"/>
<path d="M49.0402 160.756V157.039C47.1297 157.271 45.2672 157.435 43.4436 157.525C42.6171 157.563 41.7907 157.584 40.9852 157.584C32.457 157.584 24.8332 155.401 18.3293 151.097C14.3377 148.455 11.3972 144.366 10.0557 139.582C8.70218 134.766 9.11242 129.783 11.2115 125.551C13.8945 120.136 18.458 117.155 24.0576 117.155H24.1894C26.6688 117.155 28.681 119.156 28.681 121.622C28.681 122.778 28.2408 123.832 27.5162 124.625C27.2946 124.869 27.0431 125.089 26.7646 125.283C26.4562 125.497 26.1208 125.673 25.7645 125.807C24.4948 126.337 24.1505 127.692 24.0606 128.464C23.9498 129.405 23.9438 130.433 24.0457 131.52C24.1535 132.684 24.5337 133.021 25.7315 133.021C28.5193 133.021 31.1874 131.588 33.7686 130.203C37.1193 128.407 40.4312 126.564 43.6352 124.78C45.4109 123.791 47.2166 122.787 49.0402 121.783V92.7046L7.67809 104.115C2.12342 105.646 -1.16148 111.421 0.380656 116.946L19.1767 184.364C20.7158 189.889 26.522 193.156 32.0767 191.622L73.4897 180.2C76.1188 179.476 78.2389 177.799 79.5774 175.649H64.0123C55.7567 175.649 49.0402 168.968 49.0402 160.756Z" fill="white"/>
<path d="M113.034 75.7579C114.857 76.2761 116.783 75.3558 117.513 73.6164C118.519 71.2157 119.981 67.993 121.28 66.1166C121.705 65.503 122.562 64.9312 123.251 64.8865C135.45 64.121 144.4 53.9675 144.421 40.7759C144.448 24.8769 131.527 13.258 117.334 16.4986C115.887 16.8292 115.142 16.5075 114.231 15.2714C105.551 3.49761 94.2435 -1.55384 80.4871 0.414915C70.866 1.79096 63.1284 6.98538 57.2174 15.328C56.4239 16.4479 55.6932 16.6445 54.3996 16.4986C51.7106 16.2007 48.9348 15.9684 46.2728 16.3556C35.3341 17.9401 26.3538 28.3111 27.0365 42.292C27.6204 54.2534 36.5259 63.856 47.9946 64.6423C48.7342 64.6929 49.6565 65.3065 50.1146 65.9647C51.4411 67.8769 52.9414 71.171 53.9684 73.6104C54.7021 75.3528 56.6275 76.2761 58.4541 75.7549C77.8969 70.2001 93.5159 70.2001 113.034 75.7579ZM32.4235 38.4319C33.4207 30.2173 38.3315 24.2276 45.7817 22.2976C50.3362 21.1181 54.8548 21.7674 58.9811 23.906C64.9071 26.9768 70.6235 30.5241 76.4357 33.857C82.4395 37.2971 88.644 39.8854 95.627 39.0782C99.5317 38.6255 103.128 37.2465 106.323 34.7237C106.658 34.4586 106.976 34.1667 107.272 33.854C107.431 33.6872 107.527 33.4519 107.907 32.8264C106.739 33.0558 105.898 33.1154 105.116 33.3864C97.0224 36.201 89.3057 35.1556 81.9484 30.6909C78.1185 28.3677 74.3695 25.8926 70.5396 23.5724C67.7039 21.8538 64.7933 20.2752 61.7869 18.5597C73.4802 1.39185 98.5106 1.53184 110.009 19.0064C106.742 20.4599 103.592 22.1219 100.289 23.2537C97.0583 24.3617 93.6686 24.9276 90.1891 25.7705C91.5516 27.3014 93.3392 27.6082 95.1239 27.8077C99.1664 28.2575 102.999 27.1346 106.82 25.8866C111.009 24.5166 115.16 22.8278 119.445 22.0027C126.829 20.582 134.093 24.9335 137.42 32.1622C140.684 39.2539 139.358 48.3352 134.129 53.9675C128.674 59.844 122.122 61.369 114.785 59.3823C113.025 58.9058 111.297 58.2773 109.551 57.7203C109.416 57.911 109.285 58.1016 109.15 58.2922C110.168 59.3108 111.108 60.4456 112.222 61.3183C113.405 62.2446 114.749 62.9267 116.121 63.7726C115.264 65.4286 114.498 67.0906 113.546 68.6185C113.324 68.9729 112.426 69.0831 111.926 68.9432C101.745 66.1017 91.4048 64.9401 80.9093 65.4405C73.7796 65.78 66.7487 66.9059 59.8645 68.9402C58.5469 69.3304 57.96 69.0236 57.424 67.728C56.8461 66.3311 56.0286 65.0503 55.2411 63.576C57.8133 62.1285 60.5053 60.9073 62.0055 57.7769C60.7598 58.1999 59.5051 58.596 58.2655 59.0517C52.5311 61.1605 46.9495 60.9192 41.5895 57.7114C35.3251 53.9586 31.5132 45.8929 32.4205 38.423L32.4235 38.4319Z" fill="white"/>
</g>
<defs>
<clipPath id="clip0_793_102">
<rect width="171" height="192" fill="white"/>
</clipPath>
</defs>
</svg>
