<svg width="1178" height="192" viewBox="0 0 1178 192" fill="none" xmlns="http://www.w3.org/2000/svg">
<path d="M240.182 77.4545H267.455V86.5455H240.182V77.4545ZM231.091 86.5455H240.182V122.909H231.091V86.5455ZM240.182 122.909H267.455V132H240.182V122.909ZM267.455 86.5455H276.545V95.6364H267.455V86.5455ZM267.455 113.818H276.545V122.909H267.455V113.818ZM294.763 104.727H303.854V122.909H294.763V104.727ZM303.854 122.909H322.036V132H303.854V122.909ZM322.036 113.818H331.126V104.727H303.854V95.6364H331.126V86.5455H340.217V132H331.126V122.909H322.036V113.818ZM303.854 77.4545H331.126V86.5455H303.854V77.4545ZM376.616 77.4545V86.5455H385.707V95.6364H376.616V122.909H394.798V132H358.435V122.909H367.526V86.5455H358.435V77.4545H376.616ZM403.889 77.4545V86.5455H385.707V77.4545H403.889ZM458.47 59.2727H467.561V132H458.47V122.909H449.379V113.818H458.47V95.6364H449.379V86.5455H458.47V59.2727ZM449.379 122.909V132H431.197V122.909H449.379ZM431.197 122.909H422.107V86.5455H431.197V122.909ZM449.379 86.5455H431.197V77.4545H449.379V86.5455ZM494.869 77.4545H513.051V86.5455H494.869V77.4545ZM485.778 86.5455H494.869V122.909H485.778V86.5455ZM494.869 122.909H513.051V132H494.869V122.909ZM494.869 141.091H522.142V150.182H494.869V141.091ZM513.051 113.818H522.142V95.6364H513.051V86.5455H522.142V77.4545H531.233V141.091H522.142V122.909H513.051V113.818ZM558.541 77.4545H585.814V86.5455H558.541V77.4545ZM585.814 86.5455H594.905V122.909H585.814V86.5455ZM549.45 86.5455H558.541V122.909H549.45V86.5455ZM558.541 122.909H585.814V132H558.541V122.909ZM613.122 77.4545H622.213V122.909H613.122V77.4545ZM622.213 122.909H640.395V132H622.213V122.909ZM649.486 77.4545H658.577V132H649.486V122.909H640.395V113.818H649.486V77.4545ZM694.976 77.4545V86.5455H704.067V95.6364H694.976V122.909H713.158V132H676.794V122.909H685.885V86.5455H676.794V77.4545H694.976ZM722.249 77.4545V86.5455H704.067V77.4545H722.249ZM740.466 77.4545H758.648V86.5455H749.557V132H740.466V77.4545ZM758.648 86.5455H767.739V132H758.648V86.5455ZM776.83 86.5455H767.739V77.4545H776.83V86.5455ZM776.83 86.5455H785.92V132H776.83V86.5455ZM813.229 77.4545H840.501V86.5455H813.229V77.4545ZM804.138 86.5455H813.229V95.6364H840.501V86.5455H849.592V104.727H813.229V122.909H804.138V86.5455ZM813.229 122.909H840.501V132H813.229V122.909ZM840.501 113.818H849.592V122.909H840.501V113.818ZM876.901 59.2727H885.991V77.4545H913.264V86.5455H885.991V122.909H876.901V86.5455H867.81V77.4545H876.901V59.2727ZM885.991 122.909H904.173V132H885.991V122.909ZM904.173 113.818H913.264V122.909H904.173V113.818ZM949.663 113.818H958.754V132H949.663V113.818ZM1004.24 77.4545H1031.52V86.5455H1004.24V77.4545ZM995.153 86.5455H1004.24V122.909H995.153V86.5455ZM1004.24 122.909H1031.52V132H1004.24V122.909ZM1031.52 86.5455H1040.61V95.6364H1031.52V86.5455ZM1031.52 113.818H1040.61V122.909H1031.52V113.818ZM1067.92 77.4545H1095.19V86.5455H1067.92V77.4545ZM1095.19 86.5455H1104.28V122.909H1095.19V86.5455ZM1058.83 86.5455H1067.92V122.909H1058.83V86.5455ZM1067.92 122.909H1095.19V132H1067.92V122.909ZM1122.5 77.4545H1140.68V86.5455H1131.59V132H1122.5V77.4545ZM1140.68 86.5455H1149.77V132H1140.68V86.5455ZM1158.86 86.5455H1149.77V77.4545H1158.86V86.5455ZM1158.86 86.5455H1167.95V132H1158.86V86.5455Z" fill="#334155"/>
<path d="M112.824 75.7579C114.647 76.2761 116.573 75.3558 117.303 73.6164C118.309 71.2157 119.771 67.993 121.07 66.1166C121.496 65.503 122.352 64.9312 123.041 64.8865C135.24 64.1211 144.19 53.9675 144.211 40.7759C144.238 24.8769 131.317 13.258 117.124 16.4986C115.677 16.8292 114.932 16.5075 114.021 15.2714C105.341 3.49761 94.0336 -1.55384 80.2772 0.414915C70.6561 1.79096 62.9185 6.98538 57.0074 15.328C56.2139 16.4479 55.4833 16.6445 54.1897 16.4986C51.5007 16.2007 48.7248 15.9684 46.0628 16.3556C35.1241 17.9401 26.1438 28.3111 26.8266 42.292C27.4105 54.2534 36.3159 63.856 47.7846 64.6423C48.5242 64.6929 49.4465 65.3065 49.9047 65.9647C51.2312 67.8769 52.7314 71.171 53.7585 73.6104C54.4921 75.3528 56.4175 76.2761 58.2441 75.7549C77.687 70.2001 93.3059 70.2001 112.824 75.7579ZM32.2135 38.4319C33.2107 30.2173 38.1216 24.2276 45.5717 22.2976C50.1262 21.1181 54.6448 21.7674 58.7712 23.906C64.6971 26.9768 70.4135 30.5241 76.2257 33.857C82.2295 37.2971 88.434 39.8854 95.417 39.0782C99.3218 38.6255 102.918 37.2465 106.113 34.7237C106.448 34.4586 106.766 34.1667 107.062 33.854C107.221 33.6872 107.317 33.4519 107.697 32.8264C106.529 33.0558 105.688 33.1154 104.906 33.3864C96.8124 36.201 89.0958 35.1556 81.7385 30.6909C77.9086 28.3677 74.1595 25.8926 70.3297 23.5724C67.4939 21.8538 64.5834 20.2752 61.5769 18.5597C73.2702 1.39185 98.3007 1.53184 109.799 19.0064C106.532 20.4599 103.382 22.1219 100.079 23.2537C96.8484 24.3617 93.4587 24.9276 89.9791 25.7705C91.3416 27.3014 93.1293 27.6082 94.9139 27.8077C98.9564 28.2575 102.789 27.1346 106.61 25.8866C110.799 24.5166 114.95 22.8278 119.235 22.0027C126.619 20.582 133.883 24.9335 137.21 32.1622C140.474 39.2539 139.148 48.3352 133.919 53.9675C128.464 59.844 121.912 61.369 114.575 59.3823C112.815 58.9058 111.087 58.2773 109.341 57.7203C109.206 57.911 109.075 58.1016 108.94 58.2922C109.958 59.3108 110.898 60.4456 112.012 61.3183C113.195 62.2446 114.539 62.9267 115.911 63.7726C115.054 65.4286 114.288 67.0906 113.336 68.6185C113.114 68.973 112.216 69.0831 111.716 68.9432C101.535 66.1017 91.1949 64.9401 80.6994 65.4405C73.5696 65.78 66.5387 66.9059 59.6545 68.9402C58.337 69.3304 57.7501 69.0236 57.2141 67.728C56.6361 66.3311 55.8187 65.0503 55.0311 63.576C57.6033 62.1285 60.2953 60.9073 61.7955 57.7769C60.5499 58.1999 59.2952 58.596 58.0555 59.0517C52.3212 61.1605 46.7395 60.9192 41.3795 57.7114C35.1152 53.9586 31.3032 45.8929 32.2106 38.423L32.2135 38.4319Z" fill="white"/>
<path d="M32.2135 38.4319C33.2107 30.2173 38.1216 24.2276 45.5717 22.2976C50.1262 21.1181 54.6448 21.7674 58.7712 23.906C64.6971 26.9768 70.4135 30.5241 76.2257 33.857C82.2295 37.2971 88.434 39.8854 95.417 39.0782C99.3218 38.6255 102.918 37.2465 106.113 34.7237C106.448 34.4586 106.766 34.1667 107.062 33.854C107.221 33.6872 107.317 33.4519 107.697 32.8264C106.529 33.0558 105.688 33.1154 104.906 33.3864C96.8124 36.201 89.0958 35.1556 81.7385 30.6909C77.9086 28.3677 74.1595 25.8926 70.3297 23.5724C67.4939 21.8538 64.5834 20.2752 61.5769 18.5597C73.2702 1.39185 98.3007 1.53184 109.799 19.0064C106.532 20.4599 103.382 22.1219 100.079 23.2537C96.8484 24.3617 93.4587 24.9276 89.9791 25.7705C91.3416 27.3014 93.1293 27.6082 94.9139 27.8077C98.9564 28.2575 102.789 27.1346 106.61 25.8866C110.799 24.5166 114.95 22.8278 119.235 22.0027C126.619 20.582 133.883 24.9335 137.21 32.1622C140.474 39.2539 139.148 48.3352 133.919 53.9675C128.464 59.844 121.912 61.369 114.575 59.3823C112.815 58.9058 111.087 58.2773 109.341 57.7203C109.206 57.911 109.075 58.1016 108.94 58.2922C109.958 59.3108 110.898 60.4456 112.012 61.3183C113.195 62.2446 114.539 62.9267 115.911 63.7726C115.054 65.4286 114.288 67.0906 113.336 68.6185C113.114 68.973 112.216 69.0831 111.716 68.9432C101.535 66.1017 91.1949 64.9401 80.6994 65.4405C73.5696 65.78 66.5387 66.9059 59.6545 68.9402C58.337 69.3304 57.7501 69.0236 57.2141 67.728C56.6361 66.3311 55.8187 65.0503 55.0311 63.576C57.6033 62.1285 60.2953 60.9073 61.7955 57.7769C60.5499 58.1999 59.2952 58.596 58.0555 59.0517C52.3212 61.1605 46.7395 60.9192 41.3795 57.7114C35.1152 53.9586 31.3032 45.8929 32.2106 38.423L32.2135 38.4319Z" fill="white"/>
<g clip-path="url(#clip0_783_139)">
<path d="M130.015 153.116C129.272 153.116 128.524 153.099 127.775 153.063C123.586 152.86 119.187 152.256 114.333 151.219C105.622 149.358 95.669 146.793 87.8086 139.853C87.1229 139.249 86.4282 138.957 85.6796 138.957H85.3262C84.5866 138.957 83.8709 139.258 83.1972 139.853C75.3368 146.79 65.3833 149.358 56.6725 151.219C51.8155 152.256 47.4197 152.86 43.2305 153.063C42.4819 153.099 41.7363 153.116 40.9907 153.116C33.3638 153.116 26.5785 151.183 20.8262 147.377C14.4241 143.139 11.9207 134.233 15.2475 127.526C17.164 123.663 20.2123 121.622 24.0631 121.622H24.1919C21.7035 122.587 19.9638 124.89 19.6044 127.94C19.4547 129.197 19.4457 130.54 19.5775 131.934C19.9039 135.413 22.2066 137.489 25.737 137.489C29.6567 137.489 32.9746 135.707 35.9031 134.135C39.2299 132.351 42.5298 130.516 45.8297 128.678C49.5547 126.605 53.2828 124.532 57.0498 122.534C61.1911 120.336 65.3234 119.222 69.3359 119.222C71.4889 119.222 73.6509 119.543 75.765 120.178C77.7832 120.785 79.7596 121.905 81.67 122.989C82.209 123.293 82.748 123.6 83.287 123.895C83.9967 124.282 84.5836 124.455 85.1885 124.455C85.2933 124.455 85.3981 124.449 85.5029 124.44C85.6077 124.449 85.7125 124.455 85.8173 124.455C86.4192 124.455 87.0061 124.282 87.7158 123.895C88.2578 123.6 88.7968 123.293 89.3358 122.986C91.2462 121.902 93.2225 120.782 95.2378 120.178C97.3518 119.543 99.5138 119.222 101.667 119.222C105.679 119.222 109.812 120.336 113.953 122.534C117.717 124.532 121.439 126.602 125.164 128.675C128.467 130.513 131.77 132.348 135.1 134.135C138.028 135.704 141.349 137.486 145.263 137.489C148.796 137.489 151.102 135.413 151.428 131.934C151.56 130.54 151.551 129.197 151.401 127.94C151.039 124.89 149.299 122.587 146.811 121.622H146.943C150.796 121.622 153.845 123.663 155.758 127.526C159.085 134.233 156.582 143.139 150.18 147.377C144.427 151.183 137.642 153.116 130.015 153.116Z" fill="#FF9B5D"/>
<path d="M163.323 104.115L121.961 92.7046V121.786C123.719 122.751 125.461 123.722 127.174 124.675L127.357 124.777C130.402 126.471 133.852 128.389 137.233 130.203C139.814 131.588 142.485 133.021 145.264 133.021C146.467 133.021 146.848 132.684 146.958 131.517C147.06 130.433 147.054 129.408 146.943 128.464C146.851 127.684 146.5 126.299 145.18 125.786C143.167 125.006 142 122.909 142.401 120.797C142.802 118.686 144.656 117.158 146.815 117.158H146.946C152.546 117.158 157.107 120.139 159.793 125.551C161.892 129.783 162.302 134.766 160.948 139.582C159.604 144.366 156.666 148.455 152.675 151.1C146.171 155.404 138.55 157.587 130.022 157.587C129.216 157.587 128.39 157.566 127.563 157.528C125.74 157.438 123.877 157.274 121.967 157.042V160.759C121.967 168.971 115.25 175.652 106.995 175.652H91.4297C92.7712 177.802 94.8913 179.476 97.5174 180.203L138.93 191.625C144.485 193.156 150.291 189.892 151.83 184.366L170.626 116.949C172.166 111.424 168.884 105.649 163.329 104.118L163.323 104.115Z" fill="#45659D"/>
<path d="M113.391 155.585C104.357 153.655 94.0469 150.993 85.5008 143.776C76.9547 150.993 66.6448 153.655 57.6106 155.585C56.2182 155.883 54.8618 156.142 53.5322 156.375V160.756C53.5322 166.49 58.2485 171.181 64.0127 171.181H106.989C112.753 171.181 117.469 166.49 117.469 160.756V156.375C116.14 156.145 114.783 155.883 113.391 155.585Z" fill="#45659D"/>
<path d="M54.9336 118.593C59.7307 116.047 64.5757 114.757 69.3338 114.757C71.927 114.757 74.5292 115.144 77.0595 115.904C79.5688 116.657 81.8655 117.962 83.8868 119.108L84.0335 119.192C84.5186 119.466 84.9768 119.725 85.4319 119.972C85.4559 119.972 85.4768 119.972 85.5008 119.972C85.5247 119.972 85.5457 119.972 85.5697 119.972C86.0757 119.695 86.6027 119.397 87.1208 119.102C89.145 117.956 91.4417 116.654 93.9391 115.904C96.4724 115.141 99.0745 114.757 101.668 114.757C106.426 114.757 111.271 116.047 116.068 118.593C116.535 118.84 117.002 119.094 117.469 119.344V90.7923C117.469 85.0587 112.753 80.3677 106.989 80.3677H64.0127C58.2485 80.3677 53.5322 85.0587 53.5322 90.7923V119.344C53.9994 119.094 54.4635 118.84 54.9336 118.593Z" fill="#45659D"/>
<path d="M49.0402 160.756V157.039C47.1297 157.271 45.2672 157.435 43.4436 157.525C42.6171 157.563 41.7907 157.584 40.9852 157.584C32.457 157.584 24.8332 155.401 18.3293 151.097C14.3377 148.455 11.3972 144.366 10.0557 139.582C8.70218 134.766 9.11242 129.783 11.2115 125.551C13.8945 120.136 18.458 117.155 24.0576 117.155H24.1894C26.6688 117.155 28.681 119.156 28.681 121.622C28.681 122.778 28.2408 123.832 27.5162 124.625C27.2946 124.869 27.0431 125.089 26.7646 125.283C26.4562 125.497 26.1208 125.673 25.7645 125.807C24.4948 126.337 24.1505 127.692 24.0606 128.464C23.9498 129.405 23.9438 130.433 24.0457 131.52C24.1535 132.684 24.5337 133.021 25.7315 133.021C28.5193 133.021 31.1874 131.588 33.7686 130.203C37.1193 128.407 40.4312 126.564 43.6352 124.78C45.4109 123.791 47.2166 122.787 49.0402 121.783V92.7046L7.67809 104.115C2.12342 105.646 -1.16148 111.421 0.380656 116.946L19.1767 184.364C20.7158 189.889 26.522 193.156 32.0767 191.622L73.4897 180.2C76.1188 179.476 78.2389 177.799 79.5774 175.649H64.0123C55.7567 175.649 49.0402 168.968 49.0402 160.756Z" fill="#45659D"/>
<path d="M112.825 75.7569C114.648 76.2751 116.574 75.3548 117.304 73.6154C118.31 71.2147 119.772 67.9921 121.071 66.1156C121.496 65.5021 122.353 64.9302 123.042 64.8855C135.241 64.1201 144.191 53.9665 144.212 40.775C144.239 24.876 131.318 13.257 117.125 16.4976C115.678 16.8282 114.933 16.5065 114.022 15.2705C105.342 3.49664 94.0346 -1.55482 80.2781 0.413939C70.657 1.78998 62.9194 6.98441 57.0084 15.3271C56.2149 16.447 55.4843 16.6435 54.1907 16.4976C51.5017 16.1997 48.7258 15.9674 46.0638 16.3546C35.1251 17.9392 26.1448 28.3101 26.8275 42.291C27.4115 54.2525 36.3169 63.855 47.7856 64.6413C48.5252 64.6919 49.4475 65.3055 49.9056 65.9637C51.2322 67.8759 52.7324 71.1701 53.7595 73.6094C54.4931 75.3518 56.4185 76.2751 58.2451 75.7539C77.688 70.1991 93.3069 70.1991 112.825 75.7569ZM32.2145 38.4309C33.2117 30.2163 38.1225 24.2267 45.5727 22.2966C50.1272 21.1172 54.6458 21.7665 58.7721 23.905C64.6981 26.9758 70.4145 30.5231 76.2267 33.856C82.2305 37.2961 88.435 39.8844 95.418 39.0772C99.3227 38.6245 102.919 37.2455 106.114 34.7227C106.449 34.4577 106.767 34.1658 107.063 33.853C107.222 33.6862 107.318 33.4509 107.698 32.8255C106.53 33.0548 105.689 33.1144 104.907 33.3854C96.8134 36.2001 89.0967 35.1546 81.7394 30.6899C77.9096 28.3667 74.1605 25.8916 70.3306 23.5714C67.4949 21.8528 64.5843 20.2743 61.5779 18.5587C73.2712 1.39087 98.3016 1.53086 109.8 19.0054C106.533 20.4589 103.383 22.1209 100.08 23.2527C96.8493 24.3607 93.4596 24.9266 89.9801 25.7695C91.3426 27.3004 93.1302 27.6072 94.9149 27.8068C98.9574 28.2565 102.79 27.1336 106.611 25.8857C110.8 24.5156 114.951 22.8268 119.236 22.0018C126.62 20.581 133.884 24.9326 137.211 32.1613C140.475 39.253 139.149 48.3343 133.92 53.9665C128.465 59.843 121.913 61.368 114.576 59.3813C112.816 58.9048 111.088 58.2763 109.342 57.7194C109.207 57.91 109.076 58.1006 108.941 58.2912C109.959 59.3099 110.899 60.4447 112.013 61.3173C113.196 62.2436 114.54 62.9257 115.912 63.7716C115.055 65.4276 114.289 67.0896 113.337 68.6175C113.115 68.972 112.217 69.0822 111.717 68.9422C101.536 66.1007 91.1958 64.9391 80.7004 65.4395C73.5706 65.7791 66.5397 66.9049 59.6555 68.9392C58.3379 69.3294 57.751 69.0226 57.215 67.727C56.6371 66.3301 55.8196 65.0493 55.0321 63.575C57.6043 62.1275 60.2963 60.9063 61.7965 57.776C60.5508 58.1989 59.2962 58.595 58.0565 59.0507C52.3221 61.1595 46.7405 60.9182 41.3805 57.7104C35.1161 53.9576 31.3042 45.8919 32.2115 38.422L32.2145 38.4309Z" fill="#45659D"/>
</g>
<defs>
<clipPath id="clip0_783_139">
<rect width="171" height="192" fill="white"/>
</clipPath>
</defs>
</svg>
