<svg width="27" height="46" viewBox="0 0 27 46" fill="none" xmlns="http://www.w3.org/2000/svg">
<path d="M11.9625 43.3563C11.6658 41.8729 9.35323 39.8192 8.43034 38.5977C7.7283 37.6685 6.69559 36.2521 6.22276 35.1882C4.63552 31.6169 3.24003 28.2561 2.59252 24.3711C1.68434 18.922 2.84638 14.1734 7.15485 10.4633C12.685 5.70123 18.2637 4.03134 25.2079 2.29529M4.01514 43.7978C6.13239 43.6801 7.53989 43.5326 9.70579 43.7732C10.3284 43.8424 12.7739 44.5561 13.1889 44.1412C13.9262 43.4038 14.3149 40.4665 14.8568 39.3826C15.4097 38.2768 16.2763 36.9482 17.2606 36.292" stroke="#262626" stroke-width="3" stroke-linecap="round"/>
</svg>
