<svg width="92" height="477" viewBox="0 0 92 477" fill="none" xmlns="http://www.w3.org/2000/svg">
<path d="M1.00058 459.998V462.998H91.0004L91.0006 459.998H1.00058Z" fill="#262626"/>
<path d="M1.00031 433.998V436.998H91.0002L91.0003 433.998H1.00031Z" fill="#262626"/>
<path d="M1.00015 428.998V431.998H91L91.0002 428.998H1.00015Z" fill="#262626"/>
<path d="M1.0007 421.998V424.998H91.0005L91.0007 421.998H1.0007Z" fill="#262626"/>
<path d="M1 407.998V410.998H90.9998L91 407.998H1Z" fill="#262626"/>
<path d="M0.999817 395.998V398.998H90.9997L90.9998 395.998H0.999817Z" fill="#262626"/>
<path d="M0.999847 381.498V384.498H90.9997L90.9998 381.498H0.999847Z" fill="#262626"/>
<path d="M0.999664 367.998V371.998H90.9995L90.9997 367.998H0.999664Z" fill="#262626"/>
<path d="M0.999634 354.998V357.998H90.9995L90.9996 354.998H0.999634Z" fill="#262626"/>
<path d="M1.00085 348.998V350.998H91.0007L91.0009 348.998H1.00085Z" fill="#262626"/>
<path d="M1.00101 343.998V345.998H91.0009L91.001 343.998H1.00101Z" fill="#262626"/>
<path d="M1.00116 321.998V324.998H91.001L91.0012 321.998H1.00116Z" fill="#262626"/>
<path d="M1.00131 316.998V319.998H91.0012L91.0013 316.998H1.00131Z" fill="#262626"/>
<path d="M1.00146 298.998V300.998H91.0013L91.0015 298.998H1.00146Z" fill="#262626"/>
<path d="M1.00162 291.998V293.998H91.0015L91.0016 291.998H1.00162Z" fill="#262626"/>
<path d="M0.999725 278.998V281.998H90.9996L90.9997 278.998H0.999725Z" fill="#262626"/>
<path d="M0.999664 265.198L0.999725 266.998H90.9996L90.9997 265.198H0.999664Z" fill="#262626"/>
<path d="M0.999481 255.998L0.999847 259.998H90.9997L90.9995 255.998H0.999481Z" fill="#262626"/>
<path d="M0.999725 243.498V246.498H90.9996L90.9997 243.498H0.999725Z" fill="#262626"/>
<path d="M0.999481 238.498V241.498H90.9993L90.9995 238.498H0.999481Z" fill="#262626"/>
<path d="M0.999329 231.498V234.498H90.9992L90.9993 231.498H0.999329Z" fill="#262626"/>
<path d="M0.999176 224.998V229.498H90.999L90.9992 224.998H0.999176Z" fill="#262626"/>
<path d="M0.999054 212.498V215.498H90.9989L90.9991 212.498H0.999054Z" fill="#262626"/>
<path d="M1.00067 205.498V208.498H91.0005L91.0007 205.498H1.00067Z" fill="#262626"/>
<path d="M1.00082 185.998V188.998H91.0007L91.0008 185.998H1.00082Z" fill="#262626"/>
<path d="M0.998901 166.998V169.998H90.9987L90.9989 166.998H0.998901Z" fill="#262626"/>
<path d="M0.998688 160.998V162.998H90.9985L90.9987 160.998H0.998688Z" fill="#262626"/>
<path d="M1.00101 141.998V143.998H91.0009L91.001 141.998H1.00101Z" fill="#262626"/>
<path d="M1.00119 107.998V110.998H91.001L91.0012 107.998H1.00119Z" fill="#262626"/>
<path d="M0.998535 79.9979L1.00134 84.4979H91.0012L90.9985 79.9979H0.998535Z" fill="#262626"/>
<path d="M1.00143 62.4979V65.4979H91.0013L91.0014 62.4979H1.00143Z" fill="#262626"/>
<path d="M1.00183 7.99792V10.9979H91.0017L91.0018 7.99792H1.00183Z" fill="#262626"/>
<path d="M46.0004 476.998H91.0004V474.498V471.998H46.0004H1.00043V474.498V476.998H46.0004Z" fill="#262626"/>
<path d="M1.00043 469.998V466.998H91.0004L91.0003 469.998H1.00043Z" fill="#262626"/>
<path d="M46.0004 450.998H91.0004V445.998V440.998H46.0004H1.00043V445.998V450.998H46.0004Z" fill="#262626"/>
<path d="M46.0004 419.998H91.0004V417.498V414.998H46.0004H1.00043V417.498V419.998H46.0004Z" fill="#262626"/>
<path d="M46.0004 393.998H91.0004V391.498V388.998H46.0004H1.00043V391.498V393.998H46.0004Z" fill="#262626"/>
<path d="M46.0004 336.998H91.0004V331.998V326.998H46.0004H1.00043V331.998V336.998H46.0004Z" fill="#262626"/>
<path d="M46.0004 314.998H91.0004V312.498V309.998H46.0004H1.00043V312.498V314.998H46.0004Z" fill="#262626"/>
<path d="M46.0004 276.998H91.0004V274.498V271.998H46.0004H1.00043V274.498V276.998H46.0004Z" fill="#262626"/>
<path d="M46.0004 200.998H91.0004V195.998V190.998H46.0004H1.00043V195.998V200.998H46.0004Z" fill="#262626"/>
<path d="M46.0004 176.998H91.0004V174.498V171.998H46.0004H1.00043V174.498V176.998H46.0004Z" fill="#262626"/>
<path d="M46.0004 155.998H91.0004V150.998V145.998H46.0004H1.00043V150.998V155.998H46.0004Z" fill="#262626"/>
<path d="M46.0004 136.998H91.0004V134.498V131.998H46.0004H1.00043V134.498V136.998H46.0004Z" fill="#262626"/>
<path d="M46.0004 129.998H91.0004V127.498V124.998H46.0004H1.00043V127.498V129.998H46.0004Z" fill="#262626"/>
<path d="M46.0004 121.998H91.0004V117.498V112.998H46.0004H1.00043V117.498V121.998H46.0004Z" fill="#262626"/>
<path d="M46.0004 105.998H91.0004V102.498V98.9979H46.0004H1.00043V102.498V105.998H46.0004Z" fill="#262626"/>
<path d="M46.0004 95.9979H91.0004V91.4979V86.9979H46.0004H1.00043V91.4979V95.9979H46.0004Z" fill="#262626"/>
<path d="M46.0004 74.9979H91.0004V71.4979V67.9979H46.0004H1.00043V71.4979V74.9979H46.0004Z" fill="#262626"/>
<path d="M46.0004 57.9979H91.0004V55.4979V52.9979H46.0004H1.00043V55.4979V57.9979H46.0004Z" fill="#262626"/>
<path d="M46.0004 50.9979H91.0004V48.4979V45.9979H46.0004H1.00043V48.4979V50.9979H46.0004Z" fill="#262626"/>
<path d="M46.0004 43.9979H91.0004V41.4979V38.9979H46.0004H1.00043V41.4979V43.9979H46.0004Z" fill="#262626"/>
<path d="M46.0004 31.9979H91.0004V29.4979V26.9979H46.0004H1.00043V29.4979V31.9979H46.0004Z" fill="#262626"/>
<path d="M46.0004 19.9979H91.0004V16.4979V12.9979H46.0004H1.00043V16.4979V19.9979H46.0004Z" fill="#262626"/>
<path d="M46.0004 5.99792H91.0004V3.49792V0.997925H46.0004H1.00043V3.49792V5.99792H46.0004Z" fill="#262626"/>
</svg>
