<svg width="1.25rem" height="1.25rem" viewBox="0 0 24 24" xmlns="http://www.w3.org/2000/svg">
    <path d="M 19.321 5.562 # m 19.321 5.562 # 1 a 5.122 5.122 0 0 1 -0.443 -0.258 a 6.228 6.228 0 0 1 -1.138 -0.967 c -0.848 -0.971 -1.165 -1.956 -1.282 -2.645 h 0.005 C 16.366 1.12 16.406 0.75 16.412 0.75 H 12.548 V 15.693 c 0 0.201 0 0.399 -0.008 0.595 c 0 0.024 -0.002 0.047 -0.004 0.073 c 0 0.011 0 0.022 -0.002 0.033 c 0 0.003 0 0.006 0 0.008 a 3.281 3.281 0 0 1 -1.651 2.604 a 3.225 3.225 0 0 1 -1.599 0.422 c -1.8 0 -3.26 -1.468 -3.26 -3.281 s 1.459 -3.281 3.26 -3.281 a 3.23 3.23 0 0 1 1.004 0.159 l 0.005 -3.935 a 7.178 7.178 0 0 0 -5.531 1.618 a 7.584 7.584 0 0 0 -1.655 2.04 c -0.163 0.281 -0.779 1.411 -0.853 3.246 c -0.047 1.041 0.266 2.12 0.415 2.565 v 0.009 c 0.094 0.263 0.457 1.158 1.049 1.913 A 7.853 7.853 0 0 0 5.391 22.062 v -0.009 l 0.009 0.009 C 7.271 23.333 9.345 23.25 9.345 23.25 c 0.359 -0.015 1.562 0 2.928 -0.647 c 1.515 -0.718 2.377 -1.787 2.377 -1.787 a 7.428 7.428 0 0 0 1.296 -2.153 c 0.35 -0.919 0.466 -2.022 0.466 -2.462 V 8.273 c 0.047 0.028 0.671 0.441 0.671 0.441 s 0.9 0.577 2.303 0.952 c 1.007 0.267 2.363 0.323 2.363 0.323 V 6.153 C 21.275 6.205 20.31 6.055 19.321 5.562 Z "/>
</svg>